<mxfile host="app.diagrams.net" modified="2024-06-12T12:33:29.411Z" agent="Mozilla/5.0 (Macintosh; Intel Mac OS X 10_15_7) AppleWebKit/537.36 (KHTML, like Gecko) Chrome/125.0.0.0 Safari/537.36" version="24.4.13" etag="8bvrVrlgmYncHFfMCM5N" type="github">
  <diagram name="第 1 页" id="lO5QDAMBWzFpADkqgYbq">
    <mxGraphModel>
      <root>
        <mxCell id="0" />
        <mxCell id="1" parent="0" />
      </root>
    </mxGraphModel>
  </diagram>
</mxfile>
